HIERARCHY
ROOT Pelvis
{
	OFFSET 0.000000 0.000000 0.000000
	CHANNELS 6 Xposition Yposition Zposition Zrotation Yrotation Xrotation 
	JOINT Left_hip
	{
		OFFSET 0.076090 -0.089427 -0.010735
		CHANNELS 3 Zrotation Yrotation Xrotation
		JOINT Left_knee
		{
			OFFSET 0.030200 -0.359518 -0.003501
			CHANNELS 3 Zrotation Yrotation Xrotation
			JOINT Left_ankle
			{
				OFFSET -0.011005 -0.371022 -0.045888
				CHANNELS 3 Zrotation Yrotation Xrotation
				JOINT Left_foot
				{
					OFFSET 0.023930 -0.052103 0.111084
					CHANNELS 3 Zrotation Yrotation Xrotation
					End Site
					{
						OFFSET 0.000000 0.000000 0.000000
					}
				}
			}
		}
	}
	JOINT Right_hip
	{
		OFFSET -0.073836 -0.088112 -0.007709
		CHANNELS 3 Zrotation Yrotation Xrotation
		JOINT Right_knee
		{
			OFFSET -0.035715 -0.367809 -0.006536
			CHANNELS 3 Zrotation Yrotation Xrotation
			JOINT Right_ankle
			{
				OFFSET 0.013718 -0.371958 -0.043815
				CHANNELS 3 Zrotation Yrotation Xrotation
				JOINT Right_foot
				{
					OFFSET -0.021936 -0.046387 0.114542
					CHANNELS 3 Zrotation Yrotation Xrotation
					End Site
					{
						OFFSET 0.000000 0.000000 0.000000
					}
				}
			}
		}
	}
	JOINT Spine1
	{
		OFFSET -0.001865 0.102064 -0.019455
		CHANNELS 3 Zrotation Yrotation Xrotation
		JOINT Spine2
		{
			OFFSET 0.003082 0.129260 -0.001938
			CHANNELS 3 Zrotation Yrotation Xrotation
			JOINT Spine3
			{
				OFFSET 0.001104 0.048093 0.026561
				CHANNELS 3 Zrotation Yrotation Xrotation
				JOINT Neck
				{
					OFFSET -0.002010 0.204222 -0.047183
					CHANNELS 3 Zrotation Yrotation Xrotation
					JOINT Head
					{
						OFFSET 0.005050 0.063649 0.048489
						CHANNELS 3 Zrotation Yrotation Xrotation
						End Site
						{
							OFFSET 0.000000 0.000000 0.000000
						}
					}
				}
				JOINT Left_collar
				{
					OFFSET 0.072979 0.114065 -0.031633
					CHANNELS 3 Zrotation Yrotation Xrotation
					JOINT Left_shoulder
					{
						OFFSET 0.083419 0.032092 -0.006530
						CHANNELS 3 Zrotation Yrotation Xrotation
						JOINT Left_elbow
						{
							OFFSET 0.239393 -0.012014 -0.025060
							CHANNELS 3 Zrotation Yrotation Xrotation
							JOINT Left_wrist
							{
								OFFSET 0.227297 0.008116 0.000384
								CHANNELS 3 Zrotation Yrotation Xrotation
								JOINT Left_palm
								{
									OFFSET 0.074607 -0.009248 -0.012277
									CHANNELS 3 Zrotation Yrotation Xrotation
									End Site
									{
										OFFSET 0.000000 0.000000 0.000000
									}
								}
							}
						}
					}
				}
				JOINT Right_collar
				{
					OFFSET -0.074980 0.111880 -0.037894
					CHANNELS 3 Zrotation Yrotation Xrotation
					JOINT Right_shoulder
					{
						OFFSET -0.087565 0.034353 -0.009323
						CHANNELS 3 Zrotation Yrotation Xrotation
						JOINT Right_elbow
						{
							OFFSET -0.236838 -0.013719 -0.019794
							CHANNELS 3 Zrotation Yrotation Xrotation
							JOINT Right_wrist
							{
								OFFSET -0.235053 0.006433 -0.003853
								CHANNELS 3 Zrotation Yrotation Xrotation
								JOINT Right_palm
								{
									OFFSET -0.075499 -0.006894 -0.009792
									CHANNELS 3 Zrotation Yrotation Xrotation
									End Site
									{
										OFFSET 0.000000 0.000000 0.000000
									}
								}
							}
						}
					}
				}
			}
		}
	}
}
MOTION
Frames: 12
Frame Time: 0.100000
0.000000 0.000000 0.000000 175.102739 25.590915 -13.578509 2.204011 -0.447453 6.158599 -1.820258 -9.681277 -7.033771 -0.930537 7.123366 -5.392903 3.430876 7.207282 -4.417584 1.249612 -1.106198 6.609433 3.065198 4.868027 -5.966934 4.027964 -11.366251 -9.779915 -6.640194 6.487609 5.873083 2.727280 1.113537 2.058547 1.692131 -2.006748 1.094300 1.555038 -1.722707 1.098537 -0.232619 4.131124 -11.860112 -3.503548 -3.101314 2.010623 -30.229403 -1.827490 3.223693 -55.380759 -7.394230 11.872523 1.773765 -16.350773 13.859298 -6.882941 -2.081768 0.481849 -9.903493 -4.919951 -11.172139 30.398719 4.639381 4.111503 49.919979 3.666152 15.380028 -6.218016 15.753057 0.382174 5.402650 -0.568050 -0.579235 12.244561 7.456810 -7.010715 
-0.000495 0.000004 0.000368 175.061185 25.594302 -13.598230 2.221353 -0.454713 6.251566 -1.814569 -9.703662 -7.134451 -0.913258 7.151376 -5.398775 3.421260 7.204142 -4.396812 1.267457 -1.102285 6.681529 3.054414 4.886040 -6.032157 3.994047 -11.391766 -9.774423 -6.588473 6.484905 5.894451 2.702689 1.147389 1.976757 1.676613 -1.985445 1.122123 1.529270 -1.705118 1.102798 -0.229926 4.113843 -11.768338 -3.515439 -3.113041 2.053160 -30.240242 -1.800582 3.236484 -55.341802 -7.395308 11.868448 1.779291 -16.344775 13.845580 -6.896147 -2.088580 0.471121 -9.903846 -4.924179 -11.169201 30.417814 4.622923 4.128821 49.924132 3.653815 15.395647 -6.214688 15.726268 0.401150 5.421914 -0.584650 -0.583046 12.245446 7.459176 -7.010976 
-0.001047 -0.000040 0.000648 175.043473 25.579210 -13.608215 2.216352 -0.453089 6.275712 -1.814740 -9.713714 -7.149217 -0.907344 7.156378 -5.408812 3.418461 7.205297 -4.393219 1.265073 -1.097894 6.682839 3.050836 4.888249 -6.011735 3.989609 -11.395913 -9.787053 -6.579432 6.484740 5.894363 2.683489 1.159593 1.965460 1.665962 -1.971296 1.121261 1.517760 -1.697060 1.104744 -0.223111 4.110766 -11.745485 -3.519835 -3.121568 2.075012 -30.239902 -1.776255 3.240538 -55.319694 -7.382214 11.855955 1.794557 -16.320726 13.822552 -6.894033 -2.082684 0.469812 -9.902868 -4.923937 -11.169663 30.429242 4.616217 4.124180 49.934945 3.654184 15.402396 -6.221797 15.726005 0.399015 5.422039 -0.587532 -0.585162 12.243951 7.459146 -7.007607 
-0.001615 -0.000159 0.001208 175.057095 25.416181 -13.618771 2.208628 -0.404980 6.505059 -1.764959 -9.719176 -7.367648 -0.932104 7.253368 -5.441542 3.495178 7.175738 -4.376409 1.274109 -1.060133 6.759038 3.026056 4.964049 -5.993504 4.043993 -11.378592 -9.836944 -6.618719 6.499911 5.860149 2.668899 1.220486 1.830480 1.670558 -1.914441 1.157191 1.501729 -1.680218 1.125703 -0.175360 4.043794 -11.656852 -3.553513 -3.214771 2.188932 -30.250049 -1.612328 3.227958 -55.345125 -7.309999 11.835837 1.875588 -16.347504 13.698632 -6.869905 -2.104731 0.391022 -9.888655 -4.915091 -11.148551 30.478953 4.522524 4.110548 49.963824 3.627983 15.419874 -6.222959 15.659517 0.332878 5.433498 -0.605613 -0.611999 12.222295 7.440373 -7.002281 
-0.001945 -0.000111 0.001044 175.035336 25.428269 -13.627618 2.202272 -0.407382 6.499496 -1.769538 -9.720093 -7.362754 -0.929482 7.252056 -5.444153 3.492091 7.176152 -4.375121 1.269358 -1.061234 6.758511 3.022920 4.962504 -5.992922 4.042881 -11.378554 -9.836689 -6.616798 6.499134 5.861118 2.664564 1.221188 1.839893 1.672852 -1.912830 1.162174 1.505710 -1.679286 1.129397 -0.170718 4.043953 -11.652970 -3.550612 -3.215514 2.192756 -30.252986 -1.614478 3.225085 -55.346592 -7.314497 11.836278 1.875061 -16.353703 13.697963 -6.870563 -2.104883 0.389599 -9.888362 -4.915129 -11.147374 30.485491 4.522490 4.114149 49.965911 3.627036 15.418587 -6.222927 15.649097 0.329625 5.434408 -0.607679 -0.612040 12.222340 7.440464 -7.002284 
-0.002434 -0.000077 0.000775 175.020526 25.416496 -13.631632 2.195138 -0.412667 6.486133 -1.778298 -9.717728 -7.343176 -0.920081 7.250660 -5.452236 3.481939 7.177630 -4.371758 1.264430 -1.064199 6.754196 3.017991 4.959014 -5.992990 4.040921 -11.376828 -9.833016 -6.612299 6.497276 5.863470 2.662113 1.222273 1.852734 1.676924 -1.909534 1.164193 1.510158 -1.675769 1.131927 -0.161265 4.043294 -11.643058 -3.545029 -3.216217 2.204518 -30.256867 -1.618834 3.221918 -55.351847 -7.323787 11.838042 1.876415 -16.366670 13.696741 -6.873153 -2.104912 0.383976 -9.887518 -4.915235 -11.143555 30.485891 4.525708 4.118951 49.956841 3.630324 15.412668 -6.230979 15.620544 0.316879 5.435513 -0.612888 -0.612632 12.222514 7.440831 -7.002233 
-0.002891 0.000050 0.000379 174.972148 25.434209 -13.764147 2.157053 -0.434785 6.502092 -1.789160 -9.655003 -7.166567 -0.648602 7.235964 -5.589275 2.969694 7.066736 -4.098587 1.255995 -1.084901 6.844623 3.009448 4.865079 -5.978368 3.628709 -11.235779 -9.793637 -5.827880 6.319992 6.387501 2.651804 1.202035 1.993698 1.835795 -1.862012 1.123375 1.562160 -1.635110 1.031322 -0.052676 3.605689 -11.365063 -3.802315 -3.828151 2.695156 -30.464587 -1.568482 3.309332 -55.332324 -7.520345 11.962737 1.976278 -16.210809 13.723184 -7.385501 -2.064129 0.236066 -9.680965 -4.842407 -10.884326 31.094401 4.879049 4.112637 49.223763 4.426789 14.843542 -6.281183 12.603485 -0.745092 5.659175 -0.991839 -0.182587 12.086122 7.376441 -6.891335 
-0.003800 -0.000229 -0.000293 174.934510 24.759805 -14.073437 2.221834 -0.491944 7.015406 -1.999038 -9.078785 -7.391247 0.289478 7.684227 -5.572760 1.430249 6.408861 -3.097966 1.124934 -0.906178 6.991304 3.283810 4.895118 -5.870552 1.867937 -10.456290 -9.440284 -3.007538 5.260399 8.228759 2.759632 1.472606 2.072480 2.379629 -1.386117 1.545485 1.827902 -0.935838 0.708689 0.148224 0.844007 -10.345880 -4.214353 -6.654428 3.634474 -30.266491 -2.302879 3.883286 -56.231836 -8.072438 12.637196 2.338730 -14.937395 14.057663 -9.044575 -1.986995 -1.282220 -8.737328 -4.352237 -9.958985 31.543506 7.754206 4.975568 45.778621 7.495642 13.013962 -6.220199 1.435115 -2.249134 6.245053 -3.025710 2.169336 11.291253 6.969392 -6.831049 
-0.005304 -0.001093 0.000311 175.388721 22.443412 -14.597107 2.142769 0.431722 8.251825 -2.069484 -8.596386 -7.508206 0.142153 8.253486 -5.805346 1.640071 6.521792 -2.971322 0.878133 -0.550428 7.425992 3.362270 5.751134 -5.376347 1.956808 -9.637186 -9.428869 -2.769886 5.069213 8.527747 3.283769 1.560600 1.954830 2.571120 -1.055285 2.084533 1.592437 -0.627574 0.914580 1.342069 -2.326198 -8.148701 -4.415481 -9.364509 5.405466 -29.788748 -1.646168 3.765193 -56.232735 -7.264645 12.342160 2.454100 -14.831317 13.286374 -9.031381 -1.793426 -1.840146 -8.723150 -4.160105 -10.274872 29.453986 8.490061 3.815035 41.896281 9.857115 11.063452 -6.843163 2.517674 -4.515671 5.124207 -2.995567 2.278873 11.326031 6.831685 -6.827248 
-0.006143 -0.001510 0.001713 176.127507 19.499520 -15.552497 1.759566 1.232549 9.801625 -1.798614 -8.141632 -6.887341 0.173269 9.120249 -6.747965 1.956922 7.158919 -2.658768 0.828381 0.513016 8.482122 3.149815 6.816268 -4.936301 1.475663 -8.832910 -9.957973 -1.692828 4.291203 9.542409 3.892809 0.888581 1.983358 2.673802 -1.522554 2.610607 0.970046 -0.819734 0.706237 1.872319 -3.736878 -3.682495 -5.840432 -9.928376 8.143791 -29.738340 -0.735405 4.728567 -54.761363 -5.407210 12.103795 2.789681 -18.009913 12.141825 -9.509903 -2.238367 -3.556855 -9.109968 -3.818775 -11.155067 28.000740 8.664538 2.284865 39.560029 13.028344 9.342639 -7.656654 11.377725 -9.875484 4.438023 -2.185249 -3.582384 11.672260 6.633947 -6.486710 
-0.004336 -0.001442 0.002898 176.799915 16.638670 -15.596209 1.696157 1.879127 10.460737 -1.637463 -7.411915 -6.978370 -0.516336 9.557312 -7.214549 3.573444 7.814277 -3.111431 0.868292 1.179210 8.657225 3.045925 7.239578 -4.991541 2.504024 -7.818028 -10.169949 -2.797952 4.172373 9.234476 4.038038 0.339494 1.314358 2.973757 -1.811021 2.043697 0.912534 -1.134156 0.431575 1.154057 -3.306313 0.768886 -7.634042 -9.194757 11.576343 -28.692325 0.995009 4.899273 -54.667417 -4.366382 12.305635 3.607219 -26.379381 11.410605 -8.415530 -3.167603 -5.409333 -9.738267 -3.488827 -11.487460 27.048033 7.350041 0.767621 41.711769 14.914404 10.770068 -9.393088 27.337015 -12.480795 3.979725 -0.186493 -9.843186 12.043155 6.485298 -5.946286 
-0.000679 -0.001890 0.001245 177.050931 15.562519 -15.250273 1.727218 1.617649 9.721225 -1.666857 -6.729249 -6.286720 -1.060406 9.574239 -7.341355 5.290681 8.663899 -4.025232 1.127268 1.713814 7.846777 2.879596 7.012369 -4.438936 4.114256 -7.469291 -10.144220 -5.253767 4.520791 7.735957 3.588096 0.281897 0.890191 3.222406 -1.909831 1.568171 1.197262 -1.290143 0.416139 0.873703 -2.583140 2.223438 -7.452667 -8.585133 12.791021 -27.156490 1.104810 4.576605 -55.521962 -5.502164 12.845526 6.103263 -38.114194 9.929497 -4.959126 -4.138624 -7.151812 -10.491964 -3.451363 -10.900681 25.631079 6.456955 0.231400 46.211063 14.410514 14.252060 -15.554739 45.210094 -13.839959 2.290828 1.834937 -13.493356 12.329606 6.677415 -5.600899 
